<?xml version="1.0" encoding="UTF-8" standalone="no"?>
<svg
   xmlns:dc="http://purl.org/dc/elements/1.1/"
   xmlns:cc="http://creativecommons.org/ns#"
   xmlns:rdf="http://www.w3.org/1999/02/22-rdf-syntax-ns#"
   xmlns:svg="http://www.w3.org/2000/svg"
   xmlns="http://www.w3.org/2000/svg"
   xmlns:sodipodi="http://sodipodi.sourceforge.net/DTD/sodipodi-0.dtd"
   xmlns:inkscape="http://www.inkscape.org/namespaces/inkscape"
   id="a5860ba0-ef67-4914-ac96-07e2ebcccb4f"
   data-name="Layer 1"
   width="1095.74023"
   height="664.03433"
   viewBox="0 0 1095.74023 664.03433"
   version="1.1"
   sodipodi:docname="about1.svg"
   inkscape:version="0.92.4 5da689c313, 2019-01-14">
  <metadata
     id="metadata57">
    <rdf:RDF>
      <cc:Work
         rdf:about="">
        <dc:format>image/svg+xml</dc:format>
        <dc:type
           rdf:resource="http://purl.org/dc/dcmitype/StillImage" />
        <dc:title>abstract</dc:title>
      </cc:Work>
    </rdf:RDF>
  </metadata>
  <defs
     id="defs55" />
  <sodipodi:namedview
     pagecolor="#ffffff"
     bordercolor="#666666"
     borderopacity="1"
     objecttolerance="10"
     gridtolerance="10"
     guidetolerance="10"
     inkscape:pageopacity="0"
     inkscape:pageshadow="2"
     inkscape:window-width="1280"
     inkscape:window-height="777"
     id="namedview53"
     showgrid="false"
     inkscape:zoom="0.44001882"
     inkscape:cx="117.35425"
     inkscape:cy="394.35285"
     inkscape:window-x="0"
     inkscape:window-y="0"
     inkscape:window-maximized="1"
     inkscape:current-layer="a5860ba0-ef67-4914-ac96-07e2ebcccb4f"
     inkscape:snap-global="false"
     showborder="false" />
  <title
     id="title2">abstract</title>
  <g
     id="g942"
     transform="translate(-52.27049,4.5452606)">
    <rect
       id="rect4"
       height="2"
       width="394.74023"
       y="661"
       x="701"
       style="fill:#3f3d56" />
    <ellipse
       id="ellipse48"
       ry="11.81715"
       rx="20.68001"
       cy="652.21716"
       cx="1026.9738"
       style="fill:#2f2e41" />
    <path
       transform="matrix(0.11998764,0.99277539,0.99973216,-0.02314337,0,0)"
       d="m 678.1557,-302.31464 a 12.350035,94.597206 0 0 1 -9.11118,91.28618 l -3.23886,-91.28618 z"
       sodipodi:end="1.3054382"
       sodipodi:start="0"
       sodipodi:ry="94.597206"
       sodipodi:rx="12.350035"
       sodipodi:cy="-302.31464"
       sodipodi:cx="665.80566"
       sodipodi:type="arc"
       id="path872"
       style="opacity:0.55899999;fill:#d5d5ff;fill-opacity:1;fill-rule:evenodd;stroke:#ff0000;stroke-width:17.45049858;stroke-miterlimit:4;stroke-dasharray:none;stroke-opacity:1;paint-order:markers fill stroke" />
    <g
       transform="translate(-4.5452604,11.36315)"
       id="g905">
      <polygon
         style="fill:#3f3d56"
         points="718,429 474,429 474,216 718,216 718,0 0,0 0,643 718,643 "
         id="polygon6" />
      <polygon
         style="opacity:0.1"
         points="0,216 225,216 225,429 0,429 0,643 476,643 476,429 474,429 474,216 718,216 718,0 469,0 469,213 249,213 249,0 0,0 "
         id="polygon8" />
      <path
         inkscape:connector-curvature="0"
         d="m 224.12988,117.98284 a 172.00382,172.00382 0 0 1 -172,172 v -172 z"
         transform="translate(-52.12988,-117.98284)"
         id="path10"
         style="fill:#f43707;fill-opacity:1" />
      <path
         style="opacity:0.1"
         inkscape:connector-curvature="0"
         d="m 132.12988,117.98284 a 80.00357,80.00357 0 0 1 -80,80 v 44 a 124.00426,124.00426 0 0 0 124,-124 z"
         transform="translate(-52.12988,-117.98284)"
         id="path12" />
      <polygon
         points="517,84 517,115 553,115 718,115 718,84 553,84 553,60 718,60 718,29 553,29 553,0 517,0 517,29 517,60 "
         id="polygon14"
         style="fill:#660080" />
      <path
         inkscape:connector-curvature="0"
         d="m 481.12988,448.98284 a 81,81 0 1 0 -92,80.23639 V 642.98284 H 256.36627 a 81,81 0 1 0 0,22 h 132.76361 v 48 h 22 v -48 h 45 v -22 h -45 V 529.21923 a 81.00034,81.00034 0 0 0 70,-80.23639 z"
         transform="translate(-52.12988,-117.98284)"
         id="path16"
         style="fill:#ff9300;fill-opacity:1" />
      <polygon
         points="662.508,507.631 698.517,570 626.5,570 554.483,570 590.492,507.631 626.5,445.263 "
         id="polygon18"
         style="fill:#00002b" />
      <polygon
         points="561.5,617 633.517,617 611,578 610.5,578 538.483,578 574.492,515.631 574.742,515.198 561.5,492.263 525.492,554.631 489.483,617 "
         id="polygon20"
         style="fill:#d5d5ff" />
      <polygon
         points="186,345 159,345 159,291 186,291 186,259 52,259 52,393 186,393 "
         id="polygon22"
         style="fill:#ff2300;fill-opacity:1" />
      <rect
         style="fill:#6c63ff"
         x="89"
         y="234"
         width="50"
         height="50"
         id="rect24" />
      <path
         style="fill:#ffb8b8"
         inkscape:connector-curvature="0"
         d="m 989.162,357.83165 -16.544,43.72345 -59.664,20.935 c 0,0 -36,-4 -36,16 0,14.18058 43,2 43,2 l 78.66169,-23.57271 24.81601,-61.44917 z"
         transform="translate(-52.12988,-117.98284)"
         id="path26" />
      <rect
         x="614.54639"
         y="228"
         width="234"
         height="202"
         id="rect28"
         style="fill:#ff2700;fill-opacity:1" />
      <polygon
         style="fill:#3f3d56"
         points="783.508,351.631 819.517,414 747.5,414 675.483,414 711.492,351.631 747.5,289.263 "
         id="polygon30" />
      <polygon
         style="fill:#d0cde1"
         points="763.665,362.708 780,391 747.331,391 714.661,391 730.996,362.708 747.331,334.415 "
         id="polygon32" />
      <polygon
         style="fill:#d0cde1"
         points="763.665,270.708 780,299 747.331,299 714.661,299 730.996,270.708 747.331,242.415 "
         id="polygon34" />
      <g
         id="g845">
        <path
           style="fill:#2f2e41"
           inkscape:connector-curvature="0"
           id="path36"
           transform="translate(-52.12988,-117.98284)"
           d="m 1024.1539,329.42035 c 0,0 -16.544,-2.36343 -24.81603,28.36116 -8.272,30.72459 -10.63544,33.088 -10.63544,33.088 0,0 48.45027,7.09029 49.63197,4.72686 1.1817,-2.36343 10.6355,-59.08573 -14.1805,-66.17602 z" />
        <path
           style="fill:#ffb8b8"
           inkscape:connector-curvature="0"
           id="path40"
           transform="translate(-52.12988,-117.98284)"
           d="m 1000.5196,311.69463 c 0,0 10.6354,27.17944 7.0903,30.72459 -3.5452,3.54515 43.7234,8.272 43.7234,8.272 0,0 3.5452,-17.72572 -10.6354,-28.36116 0,0 -5.9086,-17.72572 -4.7269,-21.27087 1.1817,-3.54515 -35.4514,10.63544 -35.4514,10.63544 z" />
        <path
           style="fill:#ffb8b8"
           inkscape:connector-curvature="0"
           id="path44"
           transform="translate(-52.12988,-117.98284)"
           d="m 999.33786,387.32438 -16.544,43.72345 -59.664,20.935 c 0,0 -36,-4 -36,16 0,14.18058 43,2 43,2 l 78.66174,-23.57271 24.816,-61.44918 z" />
      </g>
      <ellipse
         style="fill:#2f2e41"
         cx="868.6239"
         cy="652.21716"
         rx="20.68001"
         ry="11.81715"
         id="ellipse46" />
      <g
         id="g853"
         transform="matrix(-1,0,0,1,835.92525,2.534218)">
        <path
           d="m 1024.1539,329.42035 c 0,0 -16.544,-2.36343 -24.81603,28.36116 -8.272,30.72459 -10.63544,33.088 -10.63544,33.088 0,0 48.45027,7.09029 49.63197,4.72686 1.1817,-2.36343 10.6355,-59.08573 -14.1805,-66.17602 z"
           transform="translate(-52.12988,-117.98284)"
           id="path847"
           inkscape:connector-curvature="0"
           style="fill:#2f2e41" />
        <path
           d="m 1000.5196,311.69463 c 0,0 10.6354,27.17944 7.0903,30.72459 -3.5452,3.54515 43.7234,8.272 43.7234,8.272 0,0 3.5452,-17.72572 -10.6354,-28.36116 0,0 -5.9086,-17.72572 -4.7269,-21.27087 1.1817,-3.54515 -35.4514,10.63544 -35.4514,10.63544 z"
           transform="translate(-52.12988,-117.98284)"
           id="path849"
           inkscape:connector-curvature="0"
           style="fill:#ffb8b8" />
        <path
           d="m 999.33786,387.32438 -16.544,43.72345 -59.664,20.935 c 0,0 -36,-4 -36,16 0,14.18058 43,2 43,2 l 78.66174,-23.57271 24.816,-61.44918 z"
           transform="translate(-52.12988,-117.98284)"
           id="path851"
           inkscape:connector-curvature="0"
           style="fill:#ffb8b8" />
      </g>
      <circle
         cx="-122.72203"
         cy="164.05568"
         r="31.9063"
         id="circle38-3"
         style="fill:#ffb8b8" />
      <path
         id="path838"
         d="m -133.96433,127.16129 h 1.2e-4 a 25.34145,25.34145 0 0 1 4.89258,0.48651 21.44172,21.44172 0 0 1 9.34021,-2.15271 h 0.84777 c 16.34473,0 29.59461,14.7901 29.59461,33.03461 v 6e-5 h -5.47669 l -0.88452,-6.73224 -1.29674,6.73224 h -4.56226 a 64.57589,64.57589 0 0 1 2.119,16.55036 v 33.62384 h -8.28027 l -4.79395,-12.45795 1.19849,12.45795 h -53.22314 l -4.35816,-11.32538 1.0896,11.32538 h -5.99243 V 182.3032 c 1e-5,-30.45398 17.81275,-55.14191 39.78578,-55.14191 z"
         inkscape:connector-curvature="0"
         style="fill:#2f2e41" />
      <path
         transform="matrix(0.11998764,0.99277539,0.99973216,-0.02314337,0,0)"
         d="m 659.07989,-138.6252 a 12.350035,94.597206 0 0 1 -9.11117,91.286177 l -3.23886,-91.286177 z"
         sodipodi:end="1.3054382"
         sodipodi:start="0"
         sodipodi:ry="94.597206"
         sodipodi:rx="12.350035"
         sodipodi:cy="-138.6252"
         sodipodi:cx="646.72986"
         sodipodi:type="arc"
         id="path874"
         style="opacity:0.55899999;fill:#d5d5ff;fill-opacity:1;fill-rule:evenodd;stroke:#ff0000;stroke-width:17.45049858;stroke-miterlimit:4;stroke-dasharray:none;stroke-opacity:1;paint-order:markers fill stroke" />
      <path
         style="fill:#0000d4;fill-opacity:1"
         id="path836"
         d="m -152.64277,206.88144 a 85.216,85.216 0 0 1 31.9063,21.27087 c 14.18058,15.36229 21.27087,20.08915 21.27087,20.08915 0,0 16.544,5.90857 10.63544,34.26973 -2.95429,14.18058 -0.88629,30.13373 1.92028,42.54174 a 265.8223,265.8223 0 0 1 6.35172,58.65559 v 12.2473 c 0,0 108.71777,228.071 72.08461,243.43328 -36.63316,15.36228 -69.72118,20.08915 -72.08461,16.544 -2.36343,-3.54515 -44.90517,-187.89267 -44.90517,-187.89267 0,0 -11.81715,197.34639 -41.36,197.34639 -29.54285,0 -77.99318,-8.272 -77.99318,-8.272 l 60.26746,-236.343 c 0,0 -14.18058,-40.17831 21.27087,-68.53947 l 4.72686,-12.99886 c -19.60447,0.01 -28.56614,-124.06968 -8.272,-134.7155 -3e-5,2e-5 4.72683,-3.54513 14.18055,2.36345 z"
         inkscape:connector-curvature="0" />
      <circle
         cx="967.11548"
         cy="160.89618"
         r="31.9063"
         id="circle38"
         style="fill:#ffb8b8" />
    </g>
    <path
       inkscape:connector-curvature="0"
       style="fill:#ff9200;fill-opacity:1"
       id="path42"
       d="m 990.20933,198.48879 a 85.216,85.216 0 0 0 -31.90631,21.27087 c -14.1806,15.36229 -21.2709,20.08915 -21.2709,20.08915 0,0 -16.54401,5.90857 -10.63545,34.26973 2.95429,14.18058 0.88629,30.13373 -1.92028,42.54174 a 265.8223,265.8223 0 0 0 -6.35172,58.65559 v 12.2473 c 0,0 -108.71777,228.071 -72.08461,243.43328 36.63316,15.36228 69.72118,20.08915 72.08461,16.544 2.36343,-3.54515 44.90515,-187.89267 44.90515,-187.89267 0,0 11.8172,197.34639 41.35998,197.34639 29.5429,0 77.9932,-8.272 77.9932,-8.272 l -60.2675,-236.343 c 0,0 14.1806,-40.17831 -21.2708,-68.53947 l -4.72687,-12.99886 c 19.60447,0.01 28.56617,-124.06968 8.27197,-134.7155 0,2e-5 -4.72677,-3.54513 -14.18047,2.36345 z" />
    <path
       style="fill:#2f2e41"
       inkscape:transform-center-y="-6.8178905"
       inkscape:transform-center-x="49.997864"
       inkscape:connector-curvature="0"
       id="path50"
       d="m 981.08648,129.89484 h -1e-4 a 25.34145,25.34145 0 0 0 -4.8926,0.48651 21.44172,21.44172 0 0 0 -9.3402,-2.15271 h -0.8477 c -16.3448,0 -29.5946,14.7901 -29.5946,33.03461 v 6e-5 h 5.4766 l 0.8846,-6.73224 1.2967,6.73224 h 4.5623 a 64.57589,64.57589 0 0 0 -2.119,16.55036 v 33.62384 h 8.2802 l 4.794,-12.45795 -1.1985,12.45795 h 53.22302 l 4.3582,-11.32538 -1.0896,11.32538 h 5.9924 v -26.40076 c 0,-30.45398 -17.8127,-55.14191 -39.78572,-55.14191 z" />
  </g>
</svg>
