<?xml version="1.0" encoding="UTF-8" standalone="no"?>
<svg
   xmlns:dc="http://purl.org/dc/elements/1.1/"
   xmlns:cc="http://creativecommons.org/ns#"
   xmlns:rdf="http://www.w3.org/1999/02/22-rdf-syntax-ns#"
   xmlns:svg="http://www.w3.org/2000/svg"
   xmlns="http://www.w3.org/2000/svg"
   xmlns:xlink="http://www.w3.org/1999/xlink"
   xmlns:sodipodi="http://sodipodi.sourceforge.net/DTD/sodipodi-0.dtd"
   xmlns:inkscape="http://www.inkscape.org/namespaces/inkscape"
   width="1920.183"
   height="1075.636"
   viewBox="0 0 1920.183 1075.636"
   version="1.1"
   id="svg16"
   sodipodi:docname="banner-bg.svg"
   inkscape:version="0.92.4 5da689c313, 2019-01-14">
  <metadata
     id="metadata20">
    <rdf:RDF>
      <cc:Work
         rdf:about="">
        <dc:format>image/svg+xml</dc:format>
        <dc:type
           rdf:resource="http://purl.org/dc/dcmitype/StillImage" />
      </cc:Work>
    </rdf:RDF>
  </metadata>
  <sodipodi:namedview
     pagecolor="#ffffff"
     bordercolor="#666666"
     borderopacity="1"
     objecttolerance="10"
     gridtolerance="10"
     guidetolerance="10"
     inkscape:pageopacity="0"
     inkscape:pageshadow="2"
     inkscape:window-width="1280"
     inkscape:window-height="777"
     id="namedview18"
     showgrid="false"
     inkscape:zoom="0.99037202"
     inkscape:cx="399.88755"
     inkscape:cy="537.81799"
     inkscape:window-x="0"
     inkscape:window-y="0"
     inkscape:window-maximized="1"
     inkscape:current-layer="Group_112" />
  <defs
     id="defs9">
    <linearGradient
       id="linear-gradient"
       x1="0.5"
       x2="0.5"
       y2="1"
       gradientUnits="objectBoundingBox">
      <stop
         offset="0"
         stop-color="#361cc1"
         id="stop2" />
      <stop
         offset="1"
         stop-color="#2e82ef"
         id="stop4" />
    </linearGradient>
    <clipPath
       id="clip-path">
      <path
         id="Path_199"
         data-name="Path 199"
         d="M-533.031,278.516s95.269,204.193,401.21,161.147,419.656-32.1,544.188,96.892,343.977,107.54,572.909,67.066,360.19,68.158,401.79,142.968c.041-2.4-.074-1075.621-.074-1075.621l-1920,.011Z"
         transform="translate(533 329)"
         fill="url(#linear-gradient)" />
    </clipPath>
    <linearGradient
       inkscape:collect="always"
       xlink:href="#linear-gradient"
       id="linearGradient835"
       x1="-533.03101"
       y1="208.7785"
       x2="1387.0748"
       y2="208.7785"
       gradientUnits="userSpaceOnUse" />
  </defs>
  <g
     id="Group_112"
     data-name="Group 112"
     transform="translate(0.089 0.042)">
    <path
       id="Path_195"
       data-name="Path 195"
       d="M-533.089,278.364s100.43,239.944,401.206,191.477,442.068,9.577,537.63,114.941,352.091,94.329,580.987,52.374S1349.9,678.95,1387.094,746.594c.016.016-.373-1075.609-.373-1075.609l-1919.766-.027Z"
       transform="translate(533 329)"
       opacity="0.11"
       fill="url(#linear-gradient)"
       style="fill:#ff0000" />
    <path
       id="Path_194"
       data-name="Path 194"
       d="M-533.031,278.516s95.269,204.193,401.21,161.147,419.656-32.1,544.188,96.892,343.977,107.54,572.909,67.066,360.19,68.158,401.79,142.968c.041-2.4-.074-1075.621-.074-1075.621l-1920,.011Z"
       fill="url(#linear-gradient)"
       transform="translate(533 329)"
       style="fill:#ff9200;stroke:url(#linearGradient835);opacity:1;fill-opacity:1" />
  </g>
</svg>
